<svg data-v-0dd9719b="" version="1.0" xmlns="http://www.w3.org/2000/svg" xmlns:xlink="http://www.w3.org/1999/xlink" width="100%" height="100%" viewBox="0 0 340.000000 250.000000" preserveAspectRatio="xMidYMid meet" color-interpolation-filters="sRGB" style="margin: auto;"> <rect data-v-0dd9719b="" x="0" y="0" width="100%" height="100%" fill="#fff" fill-opacity="1" class="background"></rect> <rect data-v-0dd9719b="" x="0" y="0" width="100%" height="100%" fill="url(#watermark)" fill-opacity="1" class="watermarklayer"></rect> <g data-v-0dd9719b="" fill="#626c80" class="icon-text-wrapper icon-svg-group iconsvg" transform="translate(74.86499786376953,101.17999649047852)"><g class="iconsvg-imagesvg" transform="translate(0,3.443025588989258)"><g><rect fill="#626c80" fill-opacity="0" stroke-width="2" x="0" y="0" width="60" height="40.753948038716246" class="image-rect"></rect> <svg x="0" y="0" width="60" height="40.753948038716246" filtersec="colorsb5704142460" class="image-svg-svg primary" style="overflow: visible;"><svg xmlns="http://www.w3.org/2000/svg" viewBox="-0.04401255026459694 -0.001608928432688117 24.464012145996094 16.616802215576172"><g><path d="M2.1 16.61a2 2 0 0 1-2-2.74L3.81 0H6a2.05 2.05 0 0 1 2 2.77l-2.58 9.74h10.69l2.61-9.74A3.88 3.88 0 0 1 22.23 0h2.19L20.7 13.87a3.83 3.83 0 0 1-3.47 2.74z" fill="#626c80" fill-rule="evenodd"></path></g></svg></svg> <!----></g></g> <g transform="translate(67,0)"><g data-gra="path-name" fill-rule="" class="tp-name iconsvg-namesvg"><g transform="scale(1)"><g><path d="M23.76-5L23.76-5Q26.65-5 28.93-5.98 31.2-6.96 32.78-8.71 34.35-10.46 35.18-12.9 36.01-15.34 36.01-18.27L36.01-18.27 36.01-46.57 42.28-46.57 42.28-18.27Q42.28-14.24 41-10.79 39.72-7.35 37.33-4.83 34.94-2.31 31.49-0.88 28.05 0.55 23.76 0.55L23.76 0.55Q19.47 0.55 16.02-0.88 12.58-2.31 10.17-4.83 7.77-7.35 6.48-10.79 5.2-14.24 5.2-18.27L5.2-18.27 5.2-46.57 11.47-46.57 11.47-18.3Q11.47-15.37 12.3-12.94 13.13-10.5 14.71-8.74 16.28-6.99 18.57-6 20.87-5 23.76-5ZM93.47-23.27L93.47-23.27Q93.47-18.04 91.81-13.75 90.16-9.46 87.13-6.4 84.11-3.35 79.89-1.67 75.66 0 70.53 0L70.53 0 53.11 0 53.11-46.57 70.53-46.57Q75.66-46.57 79.89-44.9 84.11-43.23 87.13-40.15 90.16-37.08 91.81-32.79 93.47-28.5 93.47-23.27ZM87-23.27L87-23.27Q87-27.56 85.83-30.94 84.66-34.32 82.52-36.66 80.37-39 77.32-40.23 74.26-41.47 70.53-41.47L70.53-41.47 59.44-41.47 59.44-5.1 70.53-5.1Q74.26-5.1 77.32-6.34 80.37-7.57 82.52-9.9 84.66-12.22 85.83-15.6 87-18.98 87-23.27ZM127.43-42.28L125.91-39.29Q125.61-38.8 125.29-38.56 124.96-38.32 124.44-38.32L124.44-38.32Q123.89-38.32 123.16-38.87 122.43-39.42 121.31-40.09 120.19-40.76 118.61-41.31 117.03-41.86 114.79-41.86L114.79-41.86Q112.68-41.86 111.05-41.29 109.43-40.72 108.34-39.75 107.25-38.77 106.7-37.46 106.15-36.14 106.15-34.61L106.15-34.61Q106.15-32.66 107.1-31.38 108.06-30.1 109.64-29.19 111.22-28.28 113.21-27.61 115.21-26.94 117.31-26.23 119.41-25.51 121.4-24.62 123.4-23.73 124.98-22.36 126.56-21 127.51-19.01 128.47-17.03 128.47-14.14L128.47-14.14Q128.47-11.08 127.43-8.4 126.39-5.72 124.39-3.74 122.4-1.76 119.49-0.62 116.58 0.52 112.87 0.52L112.87 0.52Q108.36 0.52 104.63-1.12 100.91-2.76 98.28-5.56L98.28-5.56 100.1-8.55Q100.36-8.91 100.73-9.15 101.11-9.39 101.56-9.39L101.56-9.39Q102.25-9.39 103.12-8.66 104-7.93 105.32-7.05 106.63-6.17 108.5-5.44 110.37-4.71 113.07-4.71L113.07-4.71Q115.31-4.71 117.07-5.33 118.82-5.95 120.04-7.07 121.26-8.19 121.91-9.75 122.56-11.31 122.56-13.23L122.56-13.23Q122.56-15.34 121.6-16.69 120.64-18.04 119.08-18.95 117.52-19.86 115.52-20.49 113.52-21.13 111.43-21.79 109.33-22.46 107.33-23.34 105.33-24.21 103.77-25.61 102.21-27.01 101.25-29.1 100.3-31.2 100.3-34.29L100.3-34.29Q100.3-36.76 101.25-39.07 102.21-41.37 104.03-43.16 105.85-44.95 108.53-46.02 111.22-47.09 114.69-47.09L114.69-47.09Q118.59-47.09 121.81-45.86 125.03-44.62 127.43-42.28L127.43-42.28Z" transform="translate(-5.199999809265137, 47.09000015258789)"></path></g> <!----> <!----> <!----> <!----> <!----> <!----> <!----></g></g> <!----></g></g><defs v-gra="od"></defs></svg>